<svg xmlns="http://www.w3.org/2000/svg" width="64" height="64" viewBox="0 0 64 64" fill="none">
  <rect width="64" height="64" rx="18" fill="#0B1523" />
  <rect x="4" y="4" width="56" height="56" rx="16" stroke="#76A7FF" stroke-opacity="0.28" />
  <path
    d="M20.324 22.688C22.255 20.775 25.047 19.82 28.7 19.82C33.147 19.82 36.433 21.236 38.556 24.068C39.615 25.465 40.18 26.866 40.251 28.271H33.924C33.518 27.192 32.997 26.379 32.363 25.831C31.235 24.858 29.564 24.371 27.35 24.371C25.086 24.371 23.302 25.31 21.998 27.187C20.694 29.048 20.042 31.689 20.042 35.111C20.042 38.532 20.73 41.101 22.104 42.818C23.495 44.536 25.244 45.394 27.35 45.394C29.529 45.394 31.182 44.814 32.31 43.654C32.944 43.03 33.47 42.095 33.889 40.849H40.163C39.619 44.162 38.223 46.85 35.975 48.913C33.744 50.96 30.879 51.983 27.385 51.983C23.062 51.983 19.659 50.582 17.175 47.781C14.692 44.964 13.45 41.104 13.45 36.2C13.45 30.902 15.741 26.398 20.324 22.688Z"
    fill="#EEF4FF"
  />
  <path
    d="M44.913 21.307H50.96V50.991H44.913V21.307Z"
    fill="#76A7FF"
  />
</svg>
